<?xml version="1.0" encoding="UTF-8" standalone="no"?>
<!DOCTYPE svg PUBLIC "-//W3C//DTD SVG 1.1//EN" "http://www.w3.org/Graphics/SVG/1.1/DTD/svg11.dtd">
<svg width="100%" height="100%" viewBox="0 0 1182 591" version="1.1" xmlns="http://www.w3.org/2000/svg" xmlns:xlink="http://www.w3.org/1999/xlink" xml:space="preserve" xmlns:serif="http://www.serif.com/" style="fill-rule:evenodd;clip-rule:evenodd;stroke-linejoin:round;stroke-miterlimit:2;">
    <g transform="matrix(1.93364,0,0,1.35135,0,-9.9476e-14)">
        <rect x="0" y="0" width="610.817" height="437.008" style="fill:rgb(190,214,231);"/>
    </g>
    <g transform="matrix(1,0,0,1,-9.13851,-1.29643)">
        <g>
            <text x="25.105px" y="44.008px" style="font-family:'ArialMT', 'Arial', sans-serif;font-size:41.667px;fill:rgb(255,239,198);">This <tspan x="114.38px " y="44.008px ">i</tspan>s <tspan x="155.03px " y="44.008px ">a</tspan>n <tspan x="211.935px " y="44.008px ">e</tspan>xample <tspan x="379.986px " y="44.008px ">t</tspan>ext <tspan x="457.705px " y="44.008px ">o</tspan>f <tspan x="503.014px " y="44.008px ">w</tspan>hat</text>
            <text x="25.105px" y="88.381px" style="font-family:'ArialMT', 'Arial', sans-serif;font-size:41.667px;fill:rgb(255,239,198);">your <tspan x="119.304px 157.085px 180.258px " y="88.381px 88.381px 88.381px ">Wal</tspan>lcopy <tspan x="299.928px " y="88.381px ">w</tspan>allpaper <tspan x="491.417px " y="88.381px ">c</tspan>ould</text>
            <text x="25.105px" y="132.753px" style="font-family:'ArialMT', 'Arial', sans-serif;font-size:41.667px;fill:rgb(255,239,198);">look <tspan x="111.562px " y="132.753px ">l</tspan>ike <tspan x="184.103px " y="132.753px ">u</tspan>sing <tspan x="293.733px " y="132.753px ">b</tspan>ackground <tspan x="521.507px " y="132.753px ">a</tspan>nd</text>
            <text x="25.105px" y="177.126px" style="font-family:'ArialMT', 'Arial', sans-serif;font-size:41.667px;fill:rgb(255,239,198);">text <tspan x="109.57px " y="177.126px ">c</tspan>olor <tspan x="217.188px " y="177.126px ">o</tspan>f <tspan x="269.244px " y="177.126px ">y</tspan>our <tspan x="367.604px " y="177.126px ">c</tspan>hoice. <tspan x="516.93px " y="177.126px ">U</tspan>se</text>
            <text x="25.105px" y="221.498px" style="font-family:'ArialMT', 'Arial', sans-serif;font-size:41.667px;fill:rgb(255,239,198);">the <tspan x="92.912px " y="221.498px ">c</tspan>olor <tspan x="193.108px " y="221.498px ">p</tspan>ickers <tspan x="334.97px " y="221.498px ">t</tspan>o <tspan x="379.604px " y="221.498px ">c</tspan>hange <tspan x="526.187px " y="221.498px ">t</tspan>his</text>
            <text x="25.105px" y="265.871px" style="font-family:'ArialMT', 'Arial', sans-serif;font-size:41.667px;fill:rgb(255,239,198);">example. <tspan x="207.113px " y="265.871px ">B</tspan>e <tspan x="271.017px " y="265.871px ">a</tspan>ware <tspan x="397.442px " y="265.871px ">t</tspan>hat <tspan x="479.881px " y="265.871px ">c</tspan>olors</text>
            <text x="25.105px" y="310.243px" style="font-family:'ArialMT', 'Arial', sans-serif;font-size:41.667px;fill:rgb(255,239,198);">may <tspan x="122.518px " y="310.243px ">l</tspan>ook <tspan x="217.652px " y="310.243px ">d</tspan>arker <tspan x="354.453px " y="310.243px ">o</tspan>n <tspan x="419.497px " y="310.243px ">y</tspan>our <tspan x="519.249px " y="310.243px ">w</tspan>all</text>
            <text x="25.105px" y="354.616px" style="font-family:'ArialMT', 'Arial', sans-serif;font-size:41.667px;fill:rgb(255,239,198);">than <tspan x="145.961px " y="354.616px ">o</tspan>n <tspan x="232.067px " y="354.616px ">y</tspan>our <tspan x="352.882px " y="354.616px ">s</tspan>creen. <tspan x="529.279px 567.853px " y="354.616px 354.616px ">We</tspan></text>
            <text x="25.105px" y="398.988px" style="font-family:'ArialMT', 'Arial', sans-serif;font-size:41.667px;fill:rgb(255,239,198);">recommend <tspan x="260.817px " y="398.988px ">u</tspan>sing <tspan x="376.148px " y="398.988px ">l</tspan>ight <tspan x="468.305px " y="398.988px ">c</tspan>olors.</text>
            <text x="25.105px" y="443.361px" style="font-family:'ArialMT', 'Arial', sans-serif;font-size:41.667px;fill:rgb(255,239,198);">backgrounds. <tspan x="293.981px " y="443.361px ">t</tspan>o <tspan x="347.444px " y="443.361px ">u</tspan>se <tspan x="433.336px " y="443.361px ">t</tspan>oo <tspan x="509.972px " y="443.361px ">d</tspan>ark</text>
            <text x="25.105px" y="487.733px" style="font-family:'ArialMT', 'Arial', sans-serif;font-size:41.667px;fill:rgb(255,239,198);">backgrounds. <tspan x="313.707px 339.159px " y="487.733px 487.733px ">Th</tspan>is <tspan x="433.535px " y="487.733px ">e</tspan>xample</text>
            <text x="25.105px" y="532.106px" style="font-family:'ArialMT', 'Arial', sans-serif;font-size:41.667px;fill:rgb(255,239,198);">text <tspan x="118.831px " y="532.106px ">i</tspan>s <tspan x="175.489px " y="532.106px ">n</tspan>ot <tspan x="259.979px " y="532.106px ">i</tspan>llustrative <tspan x="471.787px " y="532.106px ">o</tspan>f <tspan x="533.104px " y="532.106px ">t</tspan>he</text>
            <text x="25.105px" y="576.478px" style="font-family:'ArialMT', 'Arial', sans-serif;font-size:41.667px;fill:rgb(255,239,198);">actual <tspan x="156.836px " y="576.478px ">t</tspan>ext <tspan x="244.54px " y="576.478px ">s</tspan>ize <tspan x="339.182px " y="576.478px ">o</tspan>n <tspan x="406.073px " y="576.478px ">y</tspan>our <tspan x="507.673px " y="576.478px ">w</tspan>all.</text>
        </g>
    </g>
    <g transform="matrix(1,0,0,1,574.017,-1.29643)">
        <g>
            <text x="25.105px" y="23.116px" style="font-family:'ArialMT', 'Arial', sans-serif;font-size:12.5px;fill:rgb(255,239,198);">This <tspan x="51.797px " y="23.116px ">i</tspan>s <tspan x="63.9px " y="23.116px ">a</tspan>n <tspan x="80.881px " y="23.116px ">e</tspan>xample <tspan x="131.205px " y="23.116px ">t</tspan>ext <tspan x="154.43px " y="23.116px ">o</tspan>f <tspan x="167.931px " y="23.116px ">w</tspan>hat <tspan x="197.412px " y="23.116px ">y</tspan>our <tspan x="224.805px 236.139px 243.091px " y="23.116px 23.116px 23.116px ">Wal</tspan>lcopy <tspan x="278.126px " y="23.116px ">w</tspan>allpaper <tspan x="334.706px " y="23.116px ">c</tspan>ould <tspan x="367.665px " y="23.116px ">l</tspan>ook <tspan x="393.673px " y="23.116px ">l</tspan>ike <tspan x="415.506px " y="23.116px ">u</tspan>sing <tspan x="448.466px " y="23.116px ">b</tspan>ackground <tspan x="516.868px " y="23.116px ">a</tspan>nd <tspan x="540.801px " y="23.116px ">t</tspan>ext <tspan x="564.025px " y="23.116px ">c</tspan>olor</text>
            <text x="25.105px" y="36.613px" style="font-family:'ArialMT', 'Arial', sans-serif;font-size:12.5px;fill:rgb(255,239,198);">of <tspan x="38.252px " y="36.613px ">y</tspan>our <tspan x="65.291px " y="36.613px ">c</tspan>hoice. <tspan x="107.43px 115.065px " y="36.613px 36.613px ">Th</tspan>is <tspan x="133.764px " y="36.613px ">i</tspan>s <tspan x="145.511px " y="36.613px ">a</tspan>n <tspan x="162.135px " y="36.613px ">e</tspan>xample <tspan x="212.102px " y="36.613px ">t</tspan>ext <tspan x="234.969px " y="36.613px ">o</tspan>f <tspan x="248.114px " y="36.613px ">w</tspan>hat <tspan x="277.237px " y="36.613px ">y</tspan>our <tspan x="304.274px 315.608px 322.56px " y="36.613px 36.613px 36.613px ">Wal</tspan>lcopy <tspan x="357.238px " y="36.613px ">w</tspan>allpaper <tspan x="413.461px " y="36.613px ">c</tspan>ould <tspan x="446.064px " y="36.613px ">l</tspan>ook <tspan x="471.714px " y="36.613px ">l</tspan>ike <tspan x="493.19px " y="36.613px ">u</tspan>sing <tspan x="525.793px " y="36.613px ">b</tspan>ackground</text>
            <text x="25.105px" y="50.109px" style="font-family:'ArialMT', 'Arial', sans-serif;font-size:12.5px;fill:rgb(255,239,198);">and <tspan x="50.038px " y="50.109px ">t</tspan>ext <tspan x="74.263px " y="50.109px ">c</tspan>olor <tspan x="105.434px " y="50.109px ">o</tspan>f <tspan x="119.936px " y="50.109px ">y</tspan>our <tspan x="148.33px " y="50.109px ">c</tspan>hoice. <tspan x="191.787px 199.423px " y="50.109px 50.109px ">Th</tspan>is <tspan x="219.479px " y="50.109px ">i</tspan>s <tspan x="232.584px " y="50.109px ">a</tspan>n <tspan x="250.565px " y="50.109px ">e</tspan>xample <tspan x="301.89px " y="50.109px ">t</tspan>ext <tspan x="326.115px " y="50.109px ">o</tspan>f <tspan x="340.617px " y="50.109px ">w</tspan>hat <tspan x="371.098px " y="50.109px ">y</tspan>our <tspan x="399.492px 410.826px 417.778px " y="50.109px 50.109px 50.109px ">Wal</tspan>lcopy <tspan x="453.813px " y="50.109px ">w</tspan>allpaper <tspan x="511.394px " y="50.109px ">c</tspan>ould <tspan x="545.354px " y="50.109px ">l</tspan>ook <tspan x="572.363px " y="50.109px ">l</tspan>ike</text>
            <text x="25.105px" y="63.606px" style="font-family:'ArialMT', 'Arial', sans-serif;font-size:12.5px;fill:rgb(255,239,198);">using <tspan x="57.915px " y="63.606px ">b</tspan>ackground <tspan x="126.167px " y="63.606px ">a</tspan>nd <tspan x="149.95px " y="63.606px ">t</tspan>ext <tspan x="173.024px " y="63.606px ">c</tspan>olor <tspan x="203.044px " y="63.606px ">o</tspan>f <tspan x="216.396px " y="63.606px ">y</tspan>our <tspan x="243.639px " y="63.606px ">c</tspan>hoice. <tspan x="285.946px 293.581px " y="63.606px 63.606px ">Th</tspan>is <tspan x="312.487px " y="63.606px ">i</tspan>s <tspan x="324.441px " y="63.606px ">a</tspan>n <tspan x="341.271px " y="63.606px ">e</tspan>xample <tspan x="391.445px " y="63.606px ">t</tspan>ext <tspan x="414.519px " y="63.606px ">o</tspan>f <tspan x="427.871px " y="63.606px ">w</tspan>hat <tspan x="457.201px " y="63.606px ">y</tspan>our <tspan x="484.445px 495.779px 502.731px " y="63.606px 63.606px 63.606px ">Wal</tspan>lcopy <tspan x="537.615px " y="63.606px ">w</tspan>allpaper</text>
            <text x="25.105px" y="77.103px" style="font-family:'ArialMT', 'Arial', sans-serif;font-size:12.5px;fill:rgb(255,239,198);">could <tspan x="59.54px " y="77.103px ">l</tspan>ook <tspan x="87.022px " y="77.103px ">l</tspan>ike <tspan x="110.33px " y="77.103px ">u</tspan>sing <tspan x="144.765px " y="77.103px ">b</tspan>ackground <tspan x="214.643px " y="77.103px ">a</tspan>nd <tspan x="240.05px " y="77.103px ">t</tspan>ext <tspan x="264.749px " y="77.103px ">c</tspan>olor <tspan x="296.395px " y="77.103px ">o</tspan>f <tspan x="311.371px " y="77.103px ">y</tspan>our <tspan x="340.239px " y="77.103px ">c</tspan>hoice. <tspan x="384.164px 391.799px " y="77.103px 77.103px ">Th</tspan>is <tspan x="412.331px " y="77.103px ">i</tspan>s <tspan x="425.911px " y="77.103px ">a</tspan>n <tspan x="444.368px " y="77.103px ">e</tspan>xample <tspan x="496.168px " y="77.103px ">t</tspan>ext <tspan x="520.868px " y="77.103px ">o</tspan>f <tspan x="535.846px " y="77.103px ">w</tspan>hat <tspan x="566.802px " y="77.103px ">y</tspan>our</text>
            <text x="25.105px" y="90.599px" style="font-family:'ArialMT', 'Arial', sans-serif;font-size:12.5px;fill:rgb(255,239,198);">W<tspan x="36.439px 43.391px " y="90.599px 90.599px ">al</tspan>lcopy <tspan x="79.067px " y="90.599px ">w</tspan>allpaper <tspan x="136.287px " y="90.599px ">c</tspan>ould <tspan x="169.887px " y="90.599px ">l</tspan>ook <tspan x="196.536px " y="90.599px ">l</tspan>ike <tspan x="219.009px " y="90.599px ">u</tspan>sing <tspan x="252.609px " y="90.599px ">b</tspan>ackground <tspan x="321.652px " y="90.599px ">a</tspan>nd <tspan x="346.225px " y="90.599px ">t</tspan>ext <tspan x="370.09px " y="90.599px ">c</tspan>olor <tspan x="400.901px " y="90.599px ">o</tspan>f <tspan x="415.043px " y="90.599px ">y</tspan>our <tspan x="443.077px " y="90.599px ">c</tspan>hoice. T<tspan x="493.81px " y="90.599px ">h</tspan>is <tspan x="513.506px " y="90.599px ">i</tspan>s <tspan x="526.25px " y="90.599px ">a</tspan>n <tspan x="543.871px " y="90.599px ">e</tspan>xample</text>
            <text x="25.105px" y="104.096px" style="font-family:'ArialMT', 'Arial', sans-serif;font-size:12.5px;fill:rgb(255,239,198);">text <tspan x="48.098px " y="104.096px ">o</tspan>f <tspan x="61.367px " y="104.096px ">w</tspan>hat <tspan x="90.616px " y="104.096px ">y</tspan>our <tspan x="117.777px 129.112px 136.063px " y="104.096px 104.096px 104.096px ">Wal</tspan>lcopy <tspan x="170.866px " y="104.096px ">w</tspan>allpaper <tspan x="227.215px " y="104.096px ">c</tspan>ould <tspan x="259.942px " y="104.096px ">l</tspan>ook <tspan x="285.718px " y="104.096px ">l</tspan>ike <tspan x="307.319px " y="104.096px ">u</tspan>sing <tspan x="340.046px " y="104.096px ">b</tspan>ackground <tspan x="408.217px " y="104.096px ">a</tspan>nd <tspan x="431.918px " y="104.096px ">t</tspan>ext <tspan x="454.91px " y="104.096px ">c</tspan>olor <tspan x="484.849px " y="104.096px ">o</tspan>f <tspan x="498.118px " y="104.096px ">y</tspan>our <tspan x="525.28px " y="104.096px ">c</tspan>hoice. <tspan x="567.504px 575.14px " y="104.096px 104.096px ">Th</tspan>is</text>
            <text x="25.105px" y="117.593px" style="font-family:'ArialMT', 'Arial', sans-serif;font-size:12.5px;fill:rgb(255,239,198);">is <tspan x="37.985px " y="117.593px ">a</tspan>n <tspan x="55.741px " y="117.593px ">e</tspan>xample <tspan x="106.841px " y="117.593px ">t</tspan>ext <tspan x="130.842px " y="117.593px ">o</tspan>f <tspan x="145.119px " y="117.593px ">w</tspan>hat <tspan x="175.376px " y="117.593px ">y</tspan>our <tspan x="203.545px 214.879px 221.831px " y="117.593px 117.593px 117.593px ">Wal</tspan>lcopy <tspan x="257.641px " y="117.593px ">w</tspan>allpaper <tspan x="314.997px " y="117.593px ">c</tspan>ould <tspan x="348.733px " y="117.593px ">l</tspan>ook <tspan x="375.516px " y="117.593px ">l</tspan>ike <tspan x="398.125px " y="117.593px ">u</tspan>sing <tspan x="431.861px " y="117.593px ">b</tspan>ackground <tspan x="501.039px " y="117.593px ">a</tspan>nd <tspan x="525.747px " y="117.593px ">t</tspan>ext <tspan x="549.748px " y="117.593px ">c</tspan>olor <tspan x="580.694px " y="117.593px ">o</tspan>f</text>
            <text x="25.105px" y="131.089px" style="font-family:'ArialMT', 'Arial', sans-serif;font-size:12.5px;fill:rgb(255,239,198);">your choice. T<tspan x="103.525px " y="131.089px ">h</tspan>is is <tspan x="135.62px " y="131.089px ">a</tspan>n example <tspan x="203.859px " y="131.089px ">t</tspan>ext of <tspan x="241.52px " y="131.089px ">w</tspan>hat your <tspan x="299.328px 310.662px 317.614px " y="131.089px 131.089px 131.089px ">Wal</tspan>lcopy wallpaper <tspan x="410.164px " y="131.089px ">c</tspan>ould look <tspan x="470.066px " y="131.089px ">l</tspan>ike using <tspan x="525.793px " y="131.089px ">b</tspan>ackground</text>
            <text x="25.105px" y="144.586px" style="font-family:'ArialMT', 'Arial', sans-serif;font-size:12.5px;fill:rgb(255,239,198);">and <tspan x="50.038px " y="144.586px ">t</tspan>ext <tspan x="74.263px " y="144.586px ">c</tspan>olor <tspan x="105.434px " y="144.586px ">o</tspan>f <tspan x="119.936px " y="144.586px ">y</tspan>our <tspan x="148.33px " y="144.586px ">c</tspan>hoice. <tspan x="191.787px 199.423px " y="144.586px 144.586px ">Th</tspan>is <tspan x="219.479px " y="144.586px ">i</tspan>s <tspan x="232.584px " y="144.586px ">a</tspan>n <tspan x="250.565px " y="144.586px ">e</tspan>xample <tspan x="301.89px " y="144.586px ">t</tspan>ext <tspan x="326.115px " y="144.586px ">o</tspan>f <tspan x="340.617px " y="144.586px ">w</tspan>hat <tspan x="371.098px " y="144.586px ">y</tspan>our <tspan x="399.492px 410.826px 417.778px " y="144.586px 144.586px 144.586px ">Wal</tspan>lcopy <tspan x="453.813px " y="144.586px ">w</tspan>allpaper <tspan x="511.394px " y="144.586px ">c</tspan>ould <tspan x="545.354px " y="144.586px ">l</tspan>ook <tspan x="572.363px " y="144.586px ">l</tspan>ike</text>
            <text x="25.105px" y="158.083px" style="font-family:'ArialMT', 'Arial', sans-serif;font-size:12.5px;fill:rgb(255,239,198);">using <tspan x="57.915px " y="158.083px ">b</tspan>ackground <tspan x="126.167px " y="158.083px ">a</tspan>nd <tspan x="149.95px " y="158.083px ">t</tspan>ext <tspan x="173.024px " y="158.083px ">c</tspan>olor <tspan x="203.044px " y="158.083px ">o</tspan>f <tspan x="216.396px " y="158.083px ">y</tspan>our <tspan x="243.639px " y="158.083px ">c</tspan>hoice. <tspan x="285.946px 293.581px " y="158.083px 158.083px ">Th</tspan>is <tspan x="312.487px " y="158.083px ">i</tspan>s <tspan x="324.441px " y="158.083px ">a</tspan>n <tspan x="341.271px " y="158.083px ">e</tspan>xample <tspan x="391.445px " y="158.083px ">t</tspan>ext <tspan x="414.519px " y="158.083px ">o</tspan>f <tspan x="427.871px " y="158.083px ">w</tspan>hat <tspan x="457.201px " y="158.083px ">y</tspan>our <tspan x="484.445px 495.779px 502.731px " y="158.083px 158.083px 158.083px ">Wal</tspan>lcopy <tspan x="537.615px " y="158.083px ">w</tspan>allpaper</text>
            <text x="25.105px" y="171.579px" style="font-family:'ArialMT', 'Arial', sans-serif;font-size:12.5px;fill:rgb(255,239,198);">could <tspan x="59.54px " y="171.579px ">l</tspan>ook <tspan x="87.022px " y="171.579px ">l</tspan>ike <tspan x="110.33px " y="171.579px ">u</tspan>sing <tspan x="144.765px " y="171.579px ">b</tspan>ackground <tspan x="214.643px " y="171.579px ">a</tspan>nd <tspan x="240.05px " y="171.579px ">t</tspan>ext <tspan x="264.749px " y="171.579px ">c</tspan>olor <tspan x="296.395px " y="171.579px ">o</tspan>f <tspan x="311.371px " y="171.579px ">y</tspan>our <tspan x="340.239px " y="171.579px ">c</tspan>hoice. <tspan x="384.164px 391.799px " y="171.579px 171.579px ">Th</tspan>is <tspan x="412.331px " y="171.579px ">i</tspan>s <tspan x="425.911px " y="171.579px ">a</tspan>n <tspan x="444.368px " y="171.579px ">e</tspan>xample <tspan x="496.168px " y="171.579px ">t</tspan>ext <tspan x="520.868px " y="171.579px ">o</tspan>f <tspan x="535.846px " y="171.579px ">w</tspan>hat <tspan x="566.802px " y="171.579px ">y</tspan>our</text>
            <text x="25.105px" y="185.076px" style="font-family:'ArialMT', 'Arial', sans-serif;font-size:12.5px;fill:rgb(255,239,198);">W<tspan x="36.439px 43.391px " y="185.076px 185.076px ">al</tspan>lcopy <tspan x="79.067px " y="185.076px ">w</tspan>allpaper <tspan x="136.287px " y="185.076px ">c</tspan>ould <tspan x="169.887px " y="185.076px ">l</tspan>ook <tspan x="196.536px " y="185.076px ">l</tspan>ike <tspan x="219.009px " y="185.076px ">u</tspan>sing <tspan x="252.609px " y="185.076px ">b</tspan>ackground <tspan x="321.652px " y="185.076px ">a</tspan>nd <tspan x="346.225px " y="185.076px ">t</tspan>ext <tspan x="370.09px " y="185.076px ">c</tspan>olor <tspan x="400.901px " y="185.076px ">o</tspan>f <tspan x="415.043px " y="185.076px ">y</tspan>our <tspan x="443.077px " y="185.076px ">c</tspan>hoice. T<tspan x="493.81px " y="185.076px ">h</tspan>is <tspan x="513.506px " y="185.076px ">i</tspan>s <tspan x="526.25px " y="185.076px ">a</tspan>n <tspan x="543.871px " y="185.076px ">e</tspan>xample</text>
            <text x="25.105px" y="198.572px" style="font-family:'ArialMT', 'Arial', sans-serif;font-size:12.5px;fill:rgb(255,239,198);">text <tspan x="48.098px " y="198.572px ">o</tspan>f <tspan x="61.367px " y="198.572px ">w</tspan>hat <tspan x="90.616px " y="198.572px ">y</tspan>our <tspan x="117.777px 129.112px 136.063px " y="198.572px 198.572px 198.572px ">Wal</tspan>lcopy <tspan x="170.866px " y="198.572px ">w</tspan>allpaper <tspan x="227.215px " y="198.572px ">c</tspan>ould <tspan x="259.942px " y="198.572px ">l</tspan>ook <tspan x="285.718px " y="198.572px ">l</tspan>ike <tspan x="307.319px " y="198.572px ">u</tspan>sing <tspan x="340.046px " y="198.572px ">b</tspan>ackground <tspan x="408.217px " y="198.572px ">a</tspan>nd <tspan x="431.918px " y="198.572px ">t</tspan>ext <tspan x="454.91px " y="198.572px ">c</tspan>olor <tspan x="484.849px " y="198.572px ">o</tspan>f <tspan x="498.118px " y="198.572px ">y</tspan>our <tspan x="525.28px " y="198.572px ">c</tspan>hoice. <tspan x="567.504px 575.14px " y="198.572px 198.572px ">Th</tspan>is</text>
            <text x="25.105px" y="212.069px" style="font-family:'ArialMT', 'Arial', sans-serif;font-size:12.5px;fill:rgb(255,239,198);">is <tspan x="37.985px " y="212.069px ">a</tspan>n <tspan x="55.741px " y="212.069px ">e</tspan>xample <tspan x="106.841px " y="212.069px ">t</tspan>ext <tspan x="130.842px " y="212.069px ">o</tspan>f <tspan x="145.119px " y="212.069px ">w</tspan>hat <tspan x="175.376px " y="212.069px ">y</tspan>our <tspan x="203.545px 214.879px 221.831px " y="212.069px 212.069px 212.069px ">Wal</tspan>lcopy <tspan x="257.641px " y="212.069px ">w</tspan>allpaper <tspan x="314.997px " y="212.069px ">c</tspan>ould <tspan x="348.733px " y="212.069px ">l</tspan>ook <tspan x="375.516px " y="212.069px ">l</tspan>ike <tspan x="398.125px " y="212.069px ">u</tspan>sing <tspan x="431.861px " y="212.069px ">b</tspan>ackground <tspan x="501.039px " y="212.069px ">a</tspan>nd <tspan x="525.747px " y="212.069px ">t</tspan>ext <tspan x="549.748px " y="212.069px ">c</tspan>olor <tspan x="580.694px " y="212.069px ">o</tspan>f</text>
            <text x="25.105px" y="225.566px" style="font-family:'ArialMT', 'Arial', sans-serif;font-size:12.5px;fill:rgb(255,239,198);">your choice. T<tspan x="103.525px " y="225.566px ">h</tspan>is is <tspan x="135.62px " y="225.566px ">a</tspan>n example <tspan x="203.859px " y="225.566px ">t</tspan>ext of <tspan x="241.52px " y="225.566px ">w</tspan>hat your <tspan x="299.328px 310.662px 317.614px " y="225.566px 225.566px 225.566px ">Wal</tspan>lcopy wallpaper <tspan x="410.164px " y="225.566px ">c</tspan>ould look <tspan x="470.066px " y="225.566px ">l</tspan>ike using <tspan x="525.793px " y="225.566px ">b</tspan>ackground</text>
            <text x="25.105px" y="239.062px" style="font-family:'ArialMT', 'Arial', sans-serif;font-size:12.5px;fill:rgb(255,239,198);">and <tspan x="50.038px " y="239.062px ">t</tspan>ext <tspan x="74.263px " y="239.062px ">c</tspan>olor <tspan x="105.434px " y="239.062px ">o</tspan>f <tspan x="119.936px " y="239.062px ">y</tspan>our <tspan x="148.33px " y="239.062px ">c</tspan>hoice. <tspan x="191.787px 199.423px " y="239.062px 239.062px ">Th</tspan>is <tspan x="219.479px " y="239.062px ">i</tspan>s <tspan x="232.584px " y="239.062px ">a</tspan>n <tspan x="250.565px " y="239.062px ">e</tspan>xample <tspan x="301.89px " y="239.062px ">t</tspan>ext <tspan x="326.115px " y="239.062px ">o</tspan>f <tspan x="340.617px " y="239.062px ">w</tspan>hat <tspan x="371.098px " y="239.062px ">y</tspan>our <tspan x="399.492px 410.826px 417.778px " y="239.062px 239.062px 239.062px ">Wal</tspan>lcopy <tspan x="453.813px " y="239.062px ">w</tspan>allpaper <tspan x="511.394px " y="239.062px ">c</tspan>ould <tspan x="545.354px " y="239.062px ">l</tspan>ook <tspan x="572.363px " y="239.062px ">l</tspan>ike</text>
            <text x="25.105px" y="252.559px" style="font-family:'ArialMT', 'Arial', sans-serif;font-size:12.5px;fill:rgb(255,239,198);">using <tspan x="57.915px " y="252.559px ">b</tspan>ackground <tspan x="126.167px " y="252.559px ">a</tspan>nd <tspan x="149.95px " y="252.559px ">t</tspan>ext <tspan x="173.024px " y="252.559px ">c</tspan>olor <tspan x="203.044px " y="252.559px ">o</tspan>f <tspan x="216.396px " y="252.559px ">y</tspan>our <tspan x="243.639px " y="252.559px ">c</tspan>hoice. <tspan x="285.946px 293.581px " y="252.559px 252.559px ">Th</tspan>is <tspan x="312.487px " y="252.559px ">i</tspan>s <tspan x="324.441px " y="252.559px ">a</tspan>n <tspan x="341.271px " y="252.559px ">e</tspan>xample <tspan x="391.445px " y="252.559px ">t</tspan>ext <tspan x="414.519px " y="252.559px ">o</tspan>f <tspan x="427.871px " y="252.559px ">w</tspan>hat <tspan x="457.201px " y="252.559px ">y</tspan>our <tspan x="484.445px 495.779px 502.731px " y="252.559px 252.559px 252.559px ">Wal</tspan>lcopy <tspan x="537.615px " y="252.559px ">w</tspan>allpaper</text>
            <text x="25.105px" y="266.056px" style="font-family:'ArialMT', 'Arial', sans-serif;font-size:12.5px;fill:rgb(255,239,198);">could <tspan x="59.54px " y="266.056px ">l</tspan>ook <tspan x="87.022px " y="266.056px ">l</tspan>ike <tspan x="110.33px " y="266.056px ">u</tspan>sing <tspan x="144.765px " y="266.056px ">b</tspan>ackground <tspan x="214.643px " y="266.056px ">a</tspan>nd <tspan x="240.05px " y="266.056px ">t</tspan>ext <tspan x="264.749px " y="266.056px ">c</tspan>olor <tspan x="296.395px " y="266.056px ">o</tspan>f <tspan x="311.371px " y="266.056px ">y</tspan>our <tspan x="340.239px " y="266.056px ">c</tspan>hoice. <tspan x="384.164px 391.799px " y="266.056px 266.056px ">Th</tspan>is <tspan x="412.331px " y="266.056px ">i</tspan>s <tspan x="425.911px " y="266.056px ">a</tspan>n <tspan x="444.368px " y="266.056px ">e</tspan>xample <tspan x="496.168px " y="266.056px ">t</tspan>ext <tspan x="520.868px " y="266.056px ">o</tspan>f <tspan x="535.846px " y="266.056px ">w</tspan>hat <tspan x="566.802px " y="266.056px ">y</tspan>our</text>
            <text x="25.105px" y="279.552px" style="font-family:'ArialMT', 'Arial', sans-serif;font-size:12.5px;fill:rgb(255,239,198);">W<tspan x="36.439px 43.391px " y="279.552px 279.552px ">al</tspan>lcopy <tspan x="79.067px " y="279.552px ">w</tspan>allpaper <tspan x="136.287px " y="279.552px ">c</tspan>ould <tspan x="169.887px " y="279.552px ">l</tspan>ook <tspan x="196.536px " y="279.552px ">l</tspan>ike <tspan x="219.009px " y="279.552px ">u</tspan>sing <tspan x="252.609px " y="279.552px ">b</tspan>ackground <tspan x="321.652px " y="279.552px ">a</tspan>nd <tspan x="346.225px " y="279.552px ">t</tspan>ext <tspan x="370.09px " y="279.552px ">c</tspan>olor <tspan x="400.901px " y="279.552px ">o</tspan>f <tspan x="415.043px " y="279.552px ">y</tspan>our <tspan x="443.077px " y="279.552px ">c</tspan>hoice. T<tspan x="493.81px " y="279.552px ">h</tspan>is <tspan x="513.506px " y="279.552px ">i</tspan>s <tspan x="526.25px " y="279.552px ">a</tspan>n <tspan x="543.871px " y="279.552px ">e</tspan>xample</text>
            <text x="25.105px" y="293.049px" style="font-family:'ArialMT', 'Arial', sans-serif;font-size:12.5px;fill:rgb(255,239,198);">text <tspan x="48.098px " y="293.049px ">o</tspan>f <tspan x="61.367px " y="293.049px ">w</tspan>hat <tspan x="90.616px " y="293.049px ">y</tspan>our <tspan x="117.777px 129.112px 136.063px " y="293.049px 293.049px 293.049px ">Wal</tspan>lcopy <tspan x="170.866px " y="293.049px ">w</tspan>allpaper <tspan x="227.215px " y="293.049px ">c</tspan>ould <tspan x="259.942px " y="293.049px ">l</tspan>ook <tspan x="285.718px " y="293.049px ">l</tspan>ike <tspan x="307.319px " y="293.049px ">u</tspan>sing <tspan x="340.046px " y="293.049px ">b</tspan>ackground <tspan x="408.217px " y="293.049px ">a</tspan>nd <tspan x="431.918px " y="293.049px ">t</tspan>ext <tspan x="454.91px " y="293.049px ">c</tspan>olor <tspan x="484.849px " y="293.049px ">o</tspan>f <tspan x="498.118px " y="293.049px ">y</tspan>our <tspan x="525.28px " y="293.049px ">c</tspan>hoice. <tspan x="567.504px 575.14px " y="293.049px 293.049px ">Th</tspan>is</text>
            <text x="25.105px" y="306.546px" style="font-family:'ArialMT', 'Arial', sans-serif;font-size:12.5px;fill:rgb(255,239,198);">is <tspan x="37.985px " y="306.546px ">a</tspan>n <tspan x="55.741px " y="306.546px ">e</tspan>xample <tspan x="106.841px " y="306.546px ">t</tspan>ext <tspan x="130.842px " y="306.546px ">o</tspan>f <tspan x="145.119px " y="306.546px ">w</tspan>hat <tspan x="175.376px " y="306.546px ">y</tspan>our <tspan x="203.545px 214.879px 221.831px " y="306.546px 306.546px 306.546px ">Wal</tspan>lcopy <tspan x="257.641px " y="306.546px ">w</tspan>allpaper <tspan x="314.997px " y="306.546px ">c</tspan>ould <tspan x="348.733px " y="306.546px ">l</tspan>ook <tspan x="375.516px " y="306.546px ">l</tspan>ike <tspan x="398.125px " y="306.546px ">u</tspan>sing <tspan x="431.861px " y="306.546px ">b</tspan>ackground <tspan x="501.039px " y="306.546px ">a</tspan>nd <tspan x="525.747px " y="306.546px ">t</tspan>ext <tspan x="549.748px " y="306.546px ">c</tspan>olor <tspan x="580.694px " y="306.546px ">o</tspan>f</text>
            <text x="25.105px" y="320.042px" style="font-family:'ArialMT', 'Arial', sans-serif;font-size:12.5px;fill:rgb(255,239,198);">your choice. T<tspan x="103.525px " y="320.042px ">h</tspan>is is <tspan x="135.62px " y="320.042px ">a</tspan>n example <tspan x="203.859px " y="320.042px ">t</tspan>ext of <tspan x="241.52px " y="320.042px ">w</tspan>hat your <tspan x="299.328px 310.662px 317.614px " y="320.042px 320.042px 320.042px ">Wal</tspan>lcopy wallpaper <tspan x="410.164px " y="320.042px ">c</tspan>ould look <tspan x="470.066px " y="320.042px ">l</tspan>ike using <tspan x="525.793px " y="320.042px ">b</tspan>ackground</text>
            <text x="25.105px" y="333.539px" style="font-family:'ArialMT', 'Arial', sans-serif;font-size:12.5px;fill:rgb(255,239,198);">and <tspan x="50.038px " y="333.539px ">t</tspan>ext <tspan x="74.263px " y="333.539px ">c</tspan>olor <tspan x="105.434px " y="333.539px ">o</tspan>f <tspan x="119.936px " y="333.539px ">y</tspan>our <tspan x="148.33px " y="333.539px ">c</tspan>hoice. <tspan x="191.787px 199.423px " y="333.539px 333.539px ">Th</tspan>is <tspan x="219.479px " y="333.539px ">i</tspan>s <tspan x="232.584px " y="333.539px ">a</tspan>n <tspan x="250.565px " y="333.539px ">e</tspan>xample <tspan x="301.89px " y="333.539px ">t</tspan>ext <tspan x="326.115px " y="333.539px ">o</tspan>f <tspan x="340.617px " y="333.539px ">w</tspan>hat <tspan x="371.098px " y="333.539px ">y</tspan>our <tspan x="399.492px 410.826px 417.778px " y="333.539px 333.539px 333.539px ">Wal</tspan>lcopy <tspan x="453.813px " y="333.539px ">w</tspan>allpaper <tspan x="511.394px " y="333.539px ">c</tspan>ould <tspan x="545.354px " y="333.539px ">l</tspan>ook <tspan x="572.363px " y="333.539px ">l</tspan>ike</text>
            <text x="25.105px" y="347.035px" style="font-family:'ArialMT', 'Arial', sans-serif;font-size:12.5px;fill:rgb(255,239,198);">using <tspan x="57.915px " y="347.035px ">b</tspan>ackground <tspan x="126.167px " y="347.035px ">a</tspan>nd <tspan x="149.95px " y="347.035px ">t</tspan>ext <tspan x="173.024px " y="347.035px ">c</tspan>olor <tspan x="203.044px " y="347.035px ">o</tspan>f <tspan x="216.396px " y="347.035px ">y</tspan>our <tspan x="243.639px " y="347.035px ">c</tspan>hoice. <tspan x="285.946px 293.581px " y="347.035px 347.035px ">Th</tspan>is <tspan x="312.487px " y="347.035px ">i</tspan>s <tspan x="324.441px " y="347.035px ">a</tspan>n <tspan x="341.271px " y="347.035px ">e</tspan>xample <tspan x="391.445px " y="347.035px ">t</tspan>ext <tspan x="414.519px " y="347.035px ">o</tspan>f <tspan x="427.871px " y="347.035px ">w</tspan>hat <tspan x="457.201px " y="347.035px ">y</tspan>our <tspan x="484.445px 495.779px 502.731px " y="347.035px 347.035px 347.035px ">Wal</tspan>lcopy <tspan x="537.615px " y="347.035px ">w</tspan>allpaper</text>
            <text x="25.105px" y="360.532px" style="font-family:'ArialMT', 'Arial', sans-serif;font-size:12.5px;fill:rgb(255,239,198);">could <tspan x="59.54px " y="360.532px ">l</tspan>ook <tspan x="87.022px " y="360.532px ">l</tspan>ike <tspan x="110.33px " y="360.532px ">u</tspan>sing <tspan x="144.765px " y="360.532px ">b</tspan>ackground <tspan x="214.643px " y="360.532px ">a</tspan>nd <tspan x="240.05px " y="360.532px ">t</tspan>ext <tspan x="264.749px " y="360.532px ">c</tspan>olor <tspan x="296.395px " y="360.532px ">o</tspan>f <tspan x="311.371px " y="360.532px ">y</tspan>our <tspan x="340.239px " y="360.532px ">c</tspan>hoice. <tspan x="384.164px 391.799px " y="360.532px 360.532px ">Th</tspan>is <tspan x="412.331px " y="360.532px ">i</tspan>s <tspan x="425.911px " y="360.532px ">a</tspan>n <tspan x="444.368px " y="360.532px ">e</tspan>xample <tspan x="496.168px " y="360.532px ">t</tspan>ext <tspan x="520.868px " y="360.532px ">o</tspan>f <tspan x="535.846px " y="360.532px ">w</tspan>hat <tspan x="566.802px " y="360.532px ">y</tspan>our</text>
            <text x="25.105px" y="374.029px" style="font-family:'ArialMT', 'Arial', sans-serif;font-size:12.5px;fill:rgb(255,239,198);">W<tspan x="36.439px 43.391px " y="374.029px 374.029px ">al</tspan>lcopy <tspan x="79.067px " y="374.029px ">w</tspan>allpaper <tspan x="136.287px " y="374.029px ">c</tspan>ould <tspan x="169.887px " y="374.029px ">l</tspan>ook <tspan x="196.536px " y="374.029px ">l</tspan>ike <tspan x="219.009px " y="374.029px ">u</tspan>sing <tspan x="252.609px " y="374.029px ">b</tspan>ackground <tspan x="321.652px " y="374.029px ">a</tspan>nd <tspan x="346.225px " y="374.029px ">t</tspan>ext <tspan x="370.09px " y="374.029px ">c</tspan>olor <tspan x="400.901px " y="374.029px ">o</tspan>f <tspan x="415.043px " y="374.029px ">y</tspan>our <tspan x="443.077px " y="374.029px ">c</tspan>hoice. T<tspan x="493.81px " y="374.029px ">h</tspan>is <tspan x="513.506px " y="374.029px ">i</tspan>s <tspan x="526.25px " y="374.029px ">a</tspan>n <tspan x="543.871px " y="374.029px ">e</tspan>xample</text>
            <text x="25.105px" y="387.525px" style="font-family:'ArialMT', 'Arial', sans-serif;font-size:12.5px;fill:rgb(255,239,198);">text <tspan x="48.261px " y="387.525px ">o</tspan>f <tspan x="61.695px " y="387.525px ">w</tspan>hat <tspan x="91.107px " y="387.525px ">y</tspan>our <tspan x="118.432px 129.766px 136.718px " y="387.525px 387.525px 387.525px ">Wal</tspan>lcopy <tspan x="171.685px " y="387.525px ">w</tspan>allpaper <tspan x="228.197px " y="387.525px ">c</tspan>ould <tspan x="261.088px " y="387.525px ">l</tspan>ook <tspan x="287.027px " y="387.525px ">l</tspan>ike <tspan x="308.792px " y="387.525px ">u</tspan>sing <tspan x="341.683px " y="387.525px ">b</tspan>ackground <tspan x="410.018px " y="387.525px ">a</tspan>nd <tspan x="433.882px " y="387.525px ">t</tspan>ext <tspan x="457.038px " y="387.525px ">c</tspan>olor <tspan x="487.14px " y="387.525px ">o</tspan>f <tspan x="500.574px " y="387.525px ">y</tspan>our <tspan x="527.899px " y="387.525px ">c</tspan>hoice.This</text>
            <text x="25.105px" y="401.022px" style="font-family:'ArialMT', 'Arial', sans-serif;font-size:12.5px;fill:rgb(255,239,198);">is <tspan x="37.985px " y="401.022px ">a</tspan>n <tspan x="55.741px " y="401.022px ">e</tspan>xample <tspan x="106.841px " y="401.022px ">t</tspan>ext <tspan x="130.842px " y="401.022px ">o</tspan>f <tspan x="145.119px " y="401.022px ">w</tspan>hat <tspan x="175.376px " y="401.022px ">y</tspan>our <tspan x="203.545px 214.879px 221.831px " y="401.022px 401.022px 401.022px ">Wal</tspan>lcopy <tspan x="257.641px " y="401.022px ">w</tspan>allpaper <tspan x="314.997px " y="401.022px ">c</tspan>ould <tspan x="348.733px " y="401.022px ">l</tspan>ook <tspan x="375.516px " y="401.022px ">l</tspan>ike <tspan x="398.125px " y="401.022px ">u</tspan>sing <tspan x="431.861px " y="401.022px ">b</tspan>ackground <tspan x="501.039px " y="401.022px ">a</tspan>nd <tspan x="525.747px " y="401.022px ">t</tspan>ext <tspan x="549.748px " y="401.022px ">c</tspan>olor <tspan x="580.694px " y="401.022px ">o</tspan>f</text>
            <text x="25.105px" y="414.519px" style="font-family:'ArialMT', 'Arial', sans-serif;font-size:12.5px;fill:rgb(255,239,198);">your choice. T<tspan x="103.525px " y="414.519px ">h</tspan>is is <tspan x="135.62px " y="414.519px ">a</tspan>n example <tspan x="203.859px " y="414.519px ">t</tspan>ext of <tspan x="241.52px " y="414.519px ">w</tspan>hat your <tspan x="299.328px 310.662px 317.614px " y="414.519px 414.519px 414.519px ">Wal</tspan>lcopy wallpaper <tspan x="410.164px " y="414.519px ">c</tspan>ould look <tspan x="470.066px " y="414.519px ">l</tspan>ike using <tspan x="525.793px " y="414.519px ">b</tspan>ackground</text>
            <text x="25.105px" y="428.015px" style="font-family:'ArialMT', 'Arial', sans-serif;font-size:12.5px;fill:rgb(255,239,198);">and <tspan x="50.038px " y="428.015px ">t</tspan>ext <tspan x="74.263px " y="428.015px ">c</tspan>olor <tspan x="105.434px " y="428.015px ">o</tspan>f <tspan x="119.936px " y="428.015px ">y</tspan>our <tspan x="148.33px " y="428.015px ">c</tspan>hoice. <tspan x="191.787px 199.423px " y="428.015px 428.015px ">Th</tspan>is <tspan x="219.479px " y="428.015px ">i</tspan>s <tspan x="232.584px " y="428.015px ">a</tspan>n <tspan x="250.565px " y="428.015px ">e</tspan>xample <tspan x="301.89px " y="428.015px ">t</tspan>ext <tspan x="326.115px " y="428.015px ">o</tspan>f <tspan x="340.617px " y="428.015px ">w</tspan>hat <tspan x="371.098px " y="428.015px ">y</tspan>our <tspan x="399.492px 410.826px 417.778px " y="428.015px 428.015px 428.015px ">Wal</tspan>lcopy <tspan x="453.813px " y="428.015px ">w</tspan>allpaper <tspan x="511.394px " y="428.015px ">c</tspan>ould <tspan x="545.354px " y="428.015px ">l</tspan>ook <tspan x="572.363px " y="428.015px ">l</tspan>ike</text>
            <text x="25.105px" y="441.512px" style="font-family:'ArialMT', 'Arial', sans-serif;font-size:12.5px;fill:rgb(255,239,198);">using <tspan x="57.915px " y="441.512px ">b</tspan>ackground <tspan x="126.167px " y="441.512px ">a</tspan>nd <tspan x="149.95px " y="441.512px ">t</tspan>ext <tspan x="173.024px " y="441.512px ">c</tspan>olor <tspan x="203.044px " y="441.512px ">o</tspan>f <tspan x="216.396px " y="441.512px ">y</tspan>our <tspan x="243.639px " y="441.512px ">c</tspan>hoice. <tspan x="285.946px 293.581px " y="441.512px 441.512px ">Th</tspan>is <tspan x="312.487px " y="441.512px ">i</tspan>s <tspan x="324.441px " y="441.512px ">a</tspan>n <tspan x="341.271px " y="441.512px ">e</tspan>xample <tspan x="391.445px " y="441.512px ">t</tspan>ext <tspan x="414.519px " y="441.512px ">o</tspan>f <tspan x="427.871px " y="441.512px ">w</tspan>hat <tspan x="457.201px " y="441.512px ">y</tspan>our <tspan x="484.445px 495.779px 502.731px " y="441.512px 441.512px 441.512px ">Wal</tspan>lcopy <tspan x="537.615px " y="441.512px ">w</tspan>allpaper</text>
            <text x="25.105px" y="455.009px" style="font-family:'ArialMT', 'Arial', sans-serif;font-size:12.5px;fill:rgb(255,239,198);">could <tspan x="59.54px " y="455.009px ">l</tspan>ook <tspan x="87.022px " y="455.009px ">l</tspan>ike <tspan x="110.33px " y="455.009px ">u</tspan>sing <tspan x="144.765px " y="455.009px ">b</tspan>ackground <tspan x="214.643px " y="455.009px ">a</tspan>nd <tspan x="240.05px " y="455.009px ">t</tspan>ext <tspan x="264.749px " y="455.009px ">c</tspan>olor <tspan x="296.395px " y="455.009px ">o</tspan>f <tspan x="311.371px " y="455.009px ">y</tspan>our <tspan x="340.239px " y="455.009px ">c</tspan>hoice. <tspan x="384.164px 391.799px " y="455.009px 455.009px ">Th</tspan>is <tspan x="412.331px " y="455.009px ">i</tspan>s <tspan x="425.911px " y="455.009px ">a</tspan>n <tspan x="444.368px " y="455.009px ">e</tspan>xample <tspan x="496.168px " y="455.009px ">t</tspan>ext <tspan x="520.868px " y="455.009px ">o</tspan>f <tspan x="535.846px " y="455.009px ">w</tspan>hat <tspan x="566.802px " y="455.009px ">y</tspan>our</text>
            <text x="25.105px" y="468.505px" style="font-family:'ArialMT', 'Arial', sans-serif;font-size:12.5px;fill:rgb(255,239,198);">W<tspan x="36.439px 43.391px " y="468.505px 468.505px ">al</tspan>lcopy <tspan x="79.067px " y="468.505px ">w</tspan>allpaper <tspan x="136.287px " y="468.505px ">c</tspan>ould <tspan x="169.887px " y="468.505px ">l</tspan>ook <tspan x="196.536px " y="468.505px ">l</tspan>ike <tspan x="219.009px " y="468.505px ">u</tspan>sing <tspan x="252.609px " y="468.505px ">b</tspan>ackground <tspan x="321.652px " y="468.505px ">a</tspan>nd <tspan x="346.225px " y="468.505px ">t</tspan>ext <tspan x="370.09px " y="468.505px ">c</tspan>olor <tspan x="400.901px " y="468.505px ">o</tspan>f <tspan x="415.043px " y="468.505px ">y</tspan>our <tspan x="443.077px " y="468.505px ">c</tspan>hoice. T<tspan x="493.81px " y="468.505px ">h</tspan>is <tspan x="513.506px " y="468.505px ">i</tspan>s <tspan x="526.25px " y="468.505px ">a</tspan>n <tspan x="543.871px " y="468.505px ">e</tspan>xample</text>
            <text x="25.105px" y="482.002px" style="font-family:'ArialMT', 'Arial', sans-serif;font-size:12.5px;fill:rgb(255,239,198);">text <tspan x="48.098px " y="482.002px ">o</tspan>f <tspan x="61.367px " y="482.002px ">w</tspan>hat <tspan x="90.616px " y="482.002px ">y</tspan>our <tspan x="117.777px 129.112px 136.063px " y="482.002px 482.002px 482.002px ">Wal</tspan>lcopy <tspan x="170.866px " y="482.002px ">w</tspan>allpaper <tspan x="227.215px " y="482.002px ">c</tspan>ould <tspan x="259.942px " y="482.002px ">l</tspan>ook <tspan x="285.718px " y="482.002px ">l</tspan>ike <tspan x="307.319px " y="482.002px ">u</tspan>sing <tspan x="340.046px " y="482.002px ">b</tspan>ackground <tspan x="408.217px " y="482.002px ">a</tspan>nd <tspan x="431.918px " y="482.002px ">t</tspan>ext <tspan x="454.91px " y="482.002px ">c</tspan>olor <tspan x="484.849px " y="482.002px ">o</tspan>f <tspan x="498.118px " y="482.002px ">y</tspan>our <tspan x="525.28px " y="482.002px ">c</tspan>hoice. <tspan x="567.504px 575.14px " y="482.002px 482.002px ">Th</tspan>is</text>
            <text x="25.105px" y="495.499px" style="font-family:'ArialMT', 'Arial', sans-serif;font-size:12.5px;fill:rgb(255,239,198);">is <tspan x="37.985px " y="495.499px ">a</tspan>n <tspan x="55.741px " y="495.499px ">e</tspan>xample <tspan x="106.841px " y="495.499px ">t</tspan>ext <tspan x="130.842px " y="495.499px ">o</tspan>f <tspan x="145.119px " y="495.499px ">w</tspan>hat <tspan x="175.376px " y="495.499px ">y</tspan>our <tspan x="203.545px 214.879px 221.831px " y="495.499px 495.499px 495.499px ">Wal</tspan>lcopy <tspan x="257.641px " y="495.499px ">w</tspan>allpaper <tspan x="314.997px " y="495.499px ">c</tspan>ould <tspan x="348.733px " y="495.499px ">l</tspan>ook <tspan x="375.516px " y="495.499px ">l</tspan>ike <tspan x="398.125px " y="495.499px ">u</tspan>sing <tspan x="431.861px " y="495.499px ">b</tspan>ackground <tspan x="501.039px " y="495.499px ">a</tspan>nd <tspan x="525.747px " y="495.499px ">t</tspan>ext <tspan x="549.748px " y="495.499px ">c</tspan>olor <tspan x="580.694px " y="495.499px ">o</tspan>f</text>
            <text x="25.105px" y="508.995px" style="font-family:'ArialMT', 'Arial', sans-serif;font-size:12.5px;fill:rgb(255,239,198);">your choice. T<tspan x="103.525px " y="508.995px ">h</tspan>is is <tspan x="135.62px " y="508.995px ">a</tspan>n example <tspan x="203.859px " y="508.995px ">t</tspan>ext of <tspan x="241.52px " y="508.995px ">w</tspan>hat your <tspan x="299.328px 310.662px 317.614px " y="508.995px 508.995px 508.995px ">Wal</tspan>lcopy wallpaper <tspan x="410.164px " y="508.995px ">c</tspan>ould look <tspan x="470.066px " y="508.995px ">l</tspan>ike using <tspan x="525.793px " y="508.995px ">b</tspan>ackground</text>
            <text x="25.105px" y="522.492px" style="font-family:'ArialMT', 'Arial', sans-serif;font-size:12.5px;fill:rgb(255,239,198);">and <tspan x="50.038px " y="522.492px ">t</tspan>ext <tspan x="74.263px " y="522.492px ">c</tspan>olor <tspan x="105.434px " y="522.492px ">o</tspan>f <tspan x="119.936px " y="522.492px ">y</tspan>our <tspan x="148.33px " y="522.492px ">c</tspan>hoice. <tspan x="191.787px 199.423px " y="522.492px 522.492px ">Th</tspan>is <tspan x="219.479px " y="522.492px ">i</tspan>s <tspan x="232.584px " y="522.492px ">a</tspan>n <tspan x="250.565px " y="522.492px ">e</tspan>xample <tspan x="301.89px " y="522.492px ">t</tspan>ext <tspan x="326.115px " y="522.492px ">o</tspan>f <tspan x="340.617px " y="522.492px ">w</tspan>hat <tspan x="371.098px " y="522.492px ">y</tspan>our <tspan x="399.492px 410.826px 417.778px " y="522.492px 522.492px 522.492px ">Wal</tspan>lcopy <tspan x="453.813px " y="522.492px ">w</tspan>allpaper <tspan x="511.394px " y="522.492px ">c</tspan>ould <tspan x="545.354px " y="522.492px ">l</tspan>ook <tspan x="572.363px " y="522.492px ">l</tspan>ike</text>
            <text x="25.105px" y="535.988px" style="font-family:'ArialMT', 'Arial', sans-serif;font-size:12.5px;fill:rgb(255,239,198);">using <tspan x="57.915px " y="535.988px ">b</tspan>ackground <tspan x="126.167px " y="535.988px ">a</tspan>nd <tspan x="149.95px " y="535.988px ">t</tspan>ext <tspan x="173.024px " y="535.988px ">c</tspan>olor <tspan x="203.044px " y="535.988px ">o</tspan>f <tspan x="216.396px " y="535.988px ">y</tspan>our <tspan x="243.639px " y="535.988px ">c</tspan>hoice. <tspan x="285.946px 293.581px " y="535.988px 535.988px ">Th</tspan>is <tspan x="312.487px " y="535.988px ">i</tspan>s <tspan x="324.441px " y="535.988px ">a</tspan>n <tspan x="341.271px " y="535.988px ">e</tspan>xample <tspan x="391.445px " y="535.988px ">t</tspan>ext <tspan x="414.519px " y="535.988px ">o</tspan>f <tspan x="427.871px " y="535.988px ">w</tspan>hat <tspan x="457.201px " y="535.988px ">y</tspan>our <tspan x="484.445px 495.779px 502.731px " y="535.988px 535.988px 535.988px ">Wal</tspan>lcopy <tspan x="537.615px " y="535.988px ">w</tspan>allpaper</text>
            <text x="25.105px" y="549.485px" style="font-family:'ArialMT', 'Arial', sans-serif;font-size:12.5px;fill:rgb(255,239,198);">could <tspan x="59.54px " y="549.485px ">l</tspan>ook <tspan x="87.022px " y="549.485px ">l</tspan>ike <tspan x="110.33px " y="549.485px ">u</tspan>sing <tspan x="144.765px " y="549.485px ">b</tspan>ackground <tspan x="214.643px " y="549.485px ">a</tspan>nd <tspan x="240.05px " y="549.485px ">t</tspan>ext <tspan x="264.749px " y="549.485px ">c</tspan>olor <tspan x="296.395px " y="549.485px ">o</tspan>f <tspan x="311.371px " y="549.485px ">y</tspan>our <tspan x="340.239px " y="549.485px ">c</tspan>hoice. <tspan x="384.164px 391.799px " y="549.485px 549.485px ">Th</tspan>is <tspan x="412.331px " y="549.485px ">i</tspan>s <tspan x="425.911px " y="549.485px ">a</tspan>n <tspan x="444.368px " y="549.485px ">e</tspan>xample <tspan x="496.168px " y="549.485px ">t</tspan>ext <tspan x="520.868px " y="549.485px ">o</tspan>f <tspan x="535.846px " y="549.485px ">w</tspan>hat <tspan x="566.802px " y="549.485px ">y</tspan>our</text>
            <text x="25.105px" y="562.982px" style="font-family:'ArialMT', 'Arial', sans-serif;font-size:12.5px;fill:rgb(255,239,198);">W<tspan x="36.439px 43.391px " y="562.982px 562.982px ">al</tspan>lcopy <tspan x="79.067px " y="562.982px ">w</tspan>allpaper <tspan x="136.287px " y="562.982px ">c</tspan>ould <tspan x="169.887px " y="562.982px ">l</tspan>ook <tspan x="196.536px " y="562.982px ">l</tspan>ike <tspan x="219.009px " y="562.982px ">u</tspan>sing <tspan x="252.609px " y="562.982px ">b</tspan>ackground <tspan x="321.652px " y="562.982px ">a</tspan>nd <tspan x="346.225px " y="562.982px ">t</tspan>ext <tspan x="370.09px " y="562.982px ">c</tspan>olor <tspan x="400.901px " y="562.982px ">o</tspan>f <tspan x="415.043px " y="562.982px ">y</tspan>our <tspan x="443.077px " y="562.982px ">c</tspan>hoice. T<tspan x="493.81px " y="562.982px ">h</tspan>is <tspan x="513.506px " y="562.982px ">i</tspan>s <tspan x="526.25px " y="562.982px ">a</tspan>n <tspan x="543.871px " y="562.982px ">e</tspan>xample</text>
            <text x="25.105px" y="576.478px" style="font-family:'ArialMT', 'Arial', sans-serif;font-size:12.5px;fill:rgb(255,239,198);">text <tspan x="49.737px " y="576.478px ">o</tspan>f <tspan x="64.647px " y="576.478px ">w</tspan>hat <tspan x="95.535px " y="576.478px ">y</tspan>our <tspan x="124.336px 135.67px 142.622px " y="576.478px 576.478px 576.478px ">Wal</tspan>lcopy <tspan x="179.064px " y="576.478px ">w</tspan>allpaper <tspan x="237.052px " y="576.478px ">c</tspan>ould <tspan x="271.419px " y="576.478px ">l</tspan>ook <tspan x="298.835px " y="576.478px ">l</tspan>ike <tspan x="322.075px " y="576.478px ">u</tspan>sing <tspan x="356.442px " y="576.478px ">b</tspan>ackground <tspan x="426.253px " y="576.478px ">a</tspan>nd <tspan x="451.593px " y="576.478px ">t</tspan>ext <tspan x="476.225px " y="576.478px ">c</tspan>olor <tspan x="507.803px " y="576.478px ">o</tspan>f <tspan x="522.712px " y="576.478px ">y</tspan>our <tspan x="551.513px " y="576.478px ">c</tspan>hoice.</text>
        </g>
    </g>
</svg>
