<?xml version="1.0" encoding="UTF-8" standalone="no"?>
<!DOCTYPE svg PUBLIC "-//W3C//DTD SVG 1.1//EN" "http://www.w3.org/Graphics/SVG/1.1/DTD/svg11.dtd">
<svg width="100%" height="100%" viewBox="0 0 1182 296" version="1.1" xmlns="http://www.w3.org/2000/svg" xmlns:xlink="http://www.w3.org/1999/xlink" xml:space="preserve" xmlns:serif="http://www.serif.com/" style="fill-rule:evenodd;clip-rule:evenodd;stroke-linejoin:round;stroke-miterlimit:2;">
    <g transform="matrix(1.93364,0,0,0.67107,1.13687e-13,2.0127)">
        <rect x="0" y="0" width="610.817" height="437.008" style="fill:rgb(190,214,231);"/>
    </g>
    <g transform="matrix(1,0,0,1,24.1493,-3.02599)">
        <g>
            <text x="25.105px" y="41.024px" style="font-family:'ArialMT', 'Arial', sans-serif;font-size:37.5px;fill:rgb(255,239,198);">This <tspan x="104.508px " y="41.024px ">i</tspan>s <tspan x="140.149px " y="41.024px ">a</tspan>n <tspan x="190.42px " y="41.024px ">e</tspan>xample <tspan x="340.721px " y="41.024px ">t</tspan>ext <tspan x="409.724px " y="41.024px ">w</tspan>ith <tspan x="484.971px " y="41.024px ">t</tspan>he <tspan x="545.66px " y="41.024px ">c</tspan>olors <tspan x="654.25px " y="41.024px ">o</tspan>f <tspan x="694.084px " y="41.024px ">y</tspan>our <tspan x="775.593px " y="41.024px ">c</tspan>hoice <tspan x="892.551px " y="41.024px ">t</tspan>o <tspan x="932.385px " y="41.024px ">s</tspan>how <tspan x="1028.49px " y="41.024px ">w</tspan>hat</text>
            <text x="25.105px" y="90.39px" style="font-family:'ArialMT', 'Arial', sans-serif;font-size:37.5px;fill:rgb(255,239,198);">they <tspan x="105.775px " y="90.39px ">l</tspan>ook <tspan x="184.358px " y="90.39px ">l</tspan>ike <tspan x="250.417px " y="90.39px ">o</tspan>n <tspan x="301.918px " y="90.39px ">y</tspan>our <tspan x="384.657px " y="90.39px ">s</tspan>creen. <tspan x="517.421px " y="90.39px ">U</tspan>se <tspan x="593.898px " y="90.39px ">t</tspan>he <tspan x="655.818px " y="90.39px ">c</tspan>olor <tspan x="746.889px " y="90.39px ">p</tspan>ickers <tspan x="875.46px " y="90.39px ">t</tspan>o <tspan x="916.524px " y="90.39px ">c</tspan>hange <tspan x="1049.34px " y="90.39px ">t</tspan>his</text>
            <text x="25.105px" y="139.756px" style="font-family:'ArialMT', 'Arial', sans-serif;font-size:37.5px;fill:rgb(255,239,198);">example. <tspan x="186.248px " y="139.756px ">B</tspan>e <tspan x="241.099px " y="139.756px ">a</tspan>ware <tspan x="352.217px " y="139.756px ">t</tspan>hat <tspan x="423.748px " y="139.756px ">c</tspan>olors <tspan x="532.761px " y="139.756px ">m</tspan>ay <tspan x="612.587px " y="139.756px ">l</tspan>ook <tspan x="690.362px " y="139.756px ">s</tspan>omewhat <tspan x="870.255px " y="139.756px ">d</tspan>iﬀerent, <tspan x="1024.35px " y="139.756px ">l</tspan>ikely</text>
            <text x="25.105px" y="189.122px" style="font-family:'ArialMT', 'Arial', sans-serif;font-size:37.5px;fill:rgb(255,239,198);">darker <tspan x="145.675px " y="189.122px ">p</tspan>rinted <tspan x="274.613px " y="189.122px ">o</tspan>n <tspan x="330.602px " y="189.122px ">y</tspan>our <tspan x="417.828px " y="189.122px ">w</tspan>all <tspan x="496.705px " y="189.122px ">t</tspan>han <tspan x="583.968px " y="189.122px ">s</tspan>hown <tspan x="706.644px " y="189.122px ">i</tspan>n <tspan x="750.108px " y="189.122px ">t</tspan>his <tspan x="822.741px " y="189.122px ">e</tspan>xample <tspan x="978.761px " y="189.122px ">o</tspan>n <tspan x="1034.75px " y="189.122px ">y</tspan>our</text>
            <text x="25.105px" y="238.488px" style="font-family:'ArialMT', 'Arial', sans-serif;font-size:37.5px;fill:rgb(255,239,198);">screen. <tspan x="160.363px 195.08px 215.936px 228.22px " y="238.488px 238.488px 238.488px 238.488px ">We r</tspan>ecommend <tspan x="438.497px " y="238.488px ">u</tspan>sing <tspan x="540.429px " y="238.488px ">l</tspan>ight <tspan x="621.506px " y="238.488px ">c</tspan>olors <tspan x="733.821px " y="238.488px ">a</tspan>s <tspan x="785.711px 806.567px 818.852px " y="238.488px 238.488px 238.488px ">a b</tspan>ackground. <tspan x="1036.86px 1059.76px " y="238.488px 238.488px ">Th</tspan>is</text>
            <text x="25.105px" y="287.854px" style="font-family:'ArialMT', 'Arial', sans-serif;font-size:37.5px;fill:rgb(255,239,198);">example <tspan x="178.03px " y="287.854px ">t</tspan>ext <tspan x="249.657px " y="287.854px ">i</tspan>s <tspan x="287.921px " y="287.854px ">n</tspan>ot <tspan x="351.235px " y="287.854px ">i</tspan>llustrative <tspan x="529.135px " y="287.854px ">o</tspan>f <tspan x="571.593px " y="287.854px ">t</tspan>he <tspan x="634.906px " y="287.854px ">a</tspan>ctual <tspan x="746.157px " y="287.854px ">t</tspan>ext <tspan x="817.783px " y="287.854px ">s</tspan>ize <tspan x="895.653px " y="287.854px ">o</tspan>n <tspan x="948.548px " y="287.854px ">y</tspan>our <tspan x="1032.68px " y="287.854px ">w</tspan>all.</text>
        </g>
    </g>
</svg>
